<svg id="Layer_1" data-name="Layer 1" xmlns="http://www.w3.org/2000/svg" viewBox="0 0 19.89 20.37"><defs><style>.cls-1{fill:#e5e5e5;}.cls-2{fill:#fff;fill-rule:evenodd;}</style></defs><path class="cls-1" d="M9.52,2.87h0c-4.95,0-9,3.25-9.5,7.41A2.39,2.39,0,0,1,2.35,8.6a2.36,2.36,0,0,1,2.37,1.77h0A2.36,2.36,0,0,1,7.09,8.6a2.37,2.37,0,0,1,2.36,1.77h0a2.47,2.47,0,0,1,4.73,0h0A2.36,2.36,0,0,1,16.55,8.6,2.39,2.39,0,0,1,19,10.19C18.46,6.08,14.42,2.87,9.52,2.87ZM4.74,10.29V10A.73.73,0,0,1,4.74,10.29Z" transform="translate(-0.02 0)"/><path class="cls-1" d="M9,10.87v7.5a1,1,0,0,1-2,0,.52.52,0,0,0-.5-.5.5.5,0,0,0-.5.5,2,2,0,0,0,4,0v-7.5Z" transform="translate(-0.02 0)"/><path class="cls-1" d="M10,1.87V1.2h0C10,1,9.77.91,9.51.91S9.05,1,9,1.2H9v.67Z" transform="translate(-0.02 0)"/><path class="cls-2" d="M14.87,3.48a.44.44,0,0,1-.15-.12.51.51,0,0,1,.06-.71l1-.8a.52.52,0,0,1,.71.07.5.5,0,0,1-.07.7l-1,.8a.48.48,0,0,1-.55.06M12.11,1.69l1-.8a.5.5,0,0,0,.08-.7h0a.51.51,0,0,0-.71-.06l-1,.8a.49.49,0,0,0-.07.69h0a.44.44,0,0,0,.15.12.48.48,0,0,0,.55-.05m6.62,3.47,1-.8a.52.52,0,0,0,.07-.71.51.51,0,0,0-.71-.06l-1,.8A.52.52,0,0,0,18,5.1a.61.61,0,0,0,.16.12.5.5,0,0,0,.55-.06" transform="translate(-0.02 0)"/></svg>