<svg id="Layer_1" data-name="Layer 1" xmlns="http://www.w3.org/2000/svg" viewBox="0 0 57.97 40.57"><defs><style>.cls-1{fill:#fff;}.cls-2{fill:#e5e5e5;fill-rule:evenodd;}</style></defs><path class="cls-1" d="M49.22,11.93a11,11,0,0,0,2.67-1,6.36,6.36,0,0,0-3.32-1.87l.79-.38s-.17-.45-1.34-.81c-.05-.25.8-1.38.83-2L48.54,6s.1-.93.11-1.34h-.23a5.6,5.6,0,0,0,.27-2.57l-.12-.83-.18.25.18-.25-.77.08a4.43,4.43,0,0,0-2.23.9L45.47,2c-.36.11-1.17.44-1.17.44V2c-.55.17-1.36,1.33-1.55,1.33-.63-1.15-1-1.22-1-1.22l-.14.93A7,7,0,0,0,39.12,0,14.25,14.25,0,0,0,38.89,3l-.44-.3a5.45,5.45,0,0,0,0,2.13,7.26,7.26,0,0,0-1-.32,2.82,2.82,0,0,0,.32,1.64,4.78,4.78,0,0,0-1-.1A2.3,2.3,0,0,0,35,6.84l.21.6C35.82,9.36,37,9.51,37,9.51h-.79A1.88,1.88,0,0,0,38,10.67l-.64.22a2.57,2.57,0,0,0,2,1l-.35.26c.26.28,1,.25,1.38.25A14.79,14.79,0,0,1,38,13.69a5.45,5.45,0,0,1-2.53.69.22.22,0,0,0-.17.26h0a.28.28,0,0,0,.26.28h.07a7.19,7.19,0,0,0,3.18-1.06c.63-.39,1.26-.69,1.68-1A2.17,2.17,0,0,0,41,14l.11-.41a2.73,2.73,0,0,0,1.4,1.81v-.69A2,2,0,0,0,44,16.35l-.15-.86A2.57,2.57,0,0,0,46.17,17l.59.08A2.81,2.81,0,0,0,47,15a5.76,5.76,0,0,0-.3-1,2.47,2.47,0,0,0,1.52,0,9.64,9.64,0,0,0-.54-1,4.5,4.5,0,0,0,1.9-.49Z" transform="translate(0 0.02)"/><path class="cls-1" d="M57.25,36.74A12.78,12.78,0,0,0,55,30.45c-5.13-5.74-10.06-1.05-10.65-.59a10.83,10.83,0,0,0-5.75-1.21.13.13,0,0,0-.13.11.09.09,0,0,0,0,0c0,.16.15.17.28.16a10.79,10.79,0,0,1,5.46,1.21,7.12,7.12,0,0,0-.72,3c-.1,4.92,4.77,5.82,5.3,5.94,1.64.28,8.58,1.24,9.21,1.43A13.73,13.73,0,0,1,57.25,36.74Z" transform="translate(0 0.02)"/><path class="cls-2" d="M32.75,12.93a1,1,0,0,1-.95,1h-20a1.06,1.06,0,0,1-.95-.64,1.37,1.37,0,0,1-.09-.4,1,1,0,0,1,1-1h20A1.06,1.06,0,0,1,32.75,12.93Zm-6,5.65a1.06,1.06,0,0,1,1,1,1,1,0,0,1-.95,1h-20a1.06,1.06,0,0,1-1-.64,1.11,1.11,0,0,1-.09-.4,1,1,0,0,1,1-1Zm5.61,12.33a1.06,1.06,0,0,1,1,1,1,1,0,0,1-1,1H12.44a1,1,0,0,1-.95-.64.89.89,0,0,1-.09-.39,1,1,0,0,1,1-1ZM20.9,5.35a1.06,1.06,0,0,1,1,1,1,1,0,0,1-.95,1H1a1,1,0,0,1-1-.64,1.47,1.47,0,0,1,0-.36,1,1,0,0,1,1-1ZM38.34,25.27a1,1,0,0,1-1,1H17.45a1.07,1.07,0,0,1-.95-.64,1.37,1.37,0,0,1-.09-.4,1,1,0,0,1,1-1h19.9A1.06,1.06,0,0,1,38.34,25.27Z" transform="translate(0 0.02)"/></svg>