<svg id="mostly_clear_night" xmlns="http://www.w3.org/2000/svg" viewBox="0 0 24 24"><defs><style>.cls-1{fill:none;}.cls-2{fill:#fff;fill-rule:evenodd;}.cls-3{fill:#e5e5e5;}</style></defs><rect class="cls-1" width="24" height="24"/><path class="cls-2" d="M17.3,12.43l.09.37h.38a4.06,4.06,0,0,1,.86.13,6.08,6.08,0,0,0,4.09-3.59,5.81,5.81,0,0,1-1.39.16,6.1,6.1,0,0,1-5.64-8.35A6.07,6.07,0,0,0,11,7.08c0,.14,0,.28,0,.42A6.49,6.49,0,0,1,17.3,12.43Z"/><path class="cls-3" d="M11,8a6,6,0,0,1,5.82,4.55l.18.74.76,0A3.35,3.35,0,0,1,17.65,20H5.25A2.25,2.25,0,0,1,3,17.75a2.22,2.22,0,0,1,1.41-2.08l.7-.29L5,14.64c0-.23,0-.44,0-.64a6,6,0,0,1,6-6m0-1a7,7,0,0,0-7,7,6,6,0,0,0,0,.74A3.25,3.25,0,0,0,5.25,21h12.4a4.35,4.35,0,0,0,.14-8.69A7,7,0,0,0,11,7Z"/></svg>