<svg id="partly_cloudy_night" xmlns="http://www.w3.org/2000/svg" viewBox="0 0 24 24"><defs><style>.cls-1{fill:none;}.cls-2{fill:#fff;fill-rule:evenodd;}.cls-3{fill:#e5e5e5;}</style></defs><rect class="cls-1" width="24" height="24"/><path class="cls-2" d="M17.3,10.43l.09.37h.38a3.88,3.88,0,0,1,1.2.25,3.55,3.55,0,0,0,2.87-2.19A3.59,3.59,0,0,1,21,9a3.54,3.54,0,0,1-3.55-3.54,3.47,3.47,0,0,1,.26-1.33,3.57,3.57,0,0,0-2.69,2.84A6.41,6.41,0,0,1,17.3,10.43Z"/><path class="cls-3" d="M11,6a6,6,0,0,1,5.82,4.55l.18.74.76,0A3.35,3.35,0,0,1,17.65,18H5.25A2.25,2.25,0,0,1,3,15.75a2.22,2.22,0,0,1,1.41-2.08l.7-.28L5,12.64c0-.23,0-.44,0-.64a6,6,0,0,1,6-6m0-1a7,7,0,0,0-7,7,6,6,0,0,0,0,.74A3.25,3.25,0,0,0,5.25,19h12.4a4.35,4.35,0,0,0,.14-8.69A7,7,0,0,0,11,5Z"/></svg>