<svg id="Layer_1" data-name="Layer 1" xmlns="http://www.w3.org/2000/svg" viewBox="0 0 19.87 20.37"><defs><style>.cls-1{fill:#1db954;}.cls-2{fill:#fff;}.cls-3{fill:#0072f5;fill-rule:evenodd;}</style></defs><path class="cls-1" d="M12.52,4h0c-4.95,0-9,3.25-9.5,7.41A2.39,2.39,0,0,1,5.35,9.73,2.37,2.37,0,0,1,7.72,11.5h0a2.36,2.36,0,0,1,2.37-1.77,2.36,2.36,0,0,1,2.36,1.77h0a2.47,2.47,0,0,1,4.73,0h0a2.36,2.36,0,0,1,2.37-1.77A2.39,2.39,0,0,1,22,11.32C21.46,7.21,17.42,4,12.52,4ZM7.74,11.42c0-.05,0-.15,0-.26C7.76,11.27,7.75,11.37,7.74,11.42Z" transform="translate(-3 -1.13)"/><path class="cls-2" d="M12,12v7.5a1,1,0,0,1-2,0,.51.51,0,0,0-.5-.5.5.5,0,0,0-.5.5,2,2,0,0,0,4,0V12Z" transform="translate(-3 -1.13)"/><path class="cls-2" d="M13,3V2.33h0v0h0c0-.17-.23-.29-.49-.29s-.46.12-.49.29h0v0h0V3Z" transform="translate(-3 -1.13)"/><path class="cls-3" d="M17.87,4.61a.44.44,0,0,1-.15-.12.51.51,0,0,1,.06-.71l1-.8a.52.52,0,0,1,.71.07.5.5,0,0,1-.07.7l-1,.8a.49.49,0,0,1-.55.06M15.11,2.82l1-.8a.5.5,0,0,0,.07-.71.51.51,0,0,0-.71-.06l-1,.8a.49.49,0,0,0-.06.7.44.44,0,0,0,.15.12.49.49,0,0,0,.55-.05m6.62,3.47,1-.8a.5.5,0,0,0-.64-.77l-1,.8a.52.52,0,0,0-.07.71.61.61,0,0,0,.16.12.51.51,0,0,0,.55-.06" transform="translate(-3 -1.13)"/></svg>