<svg id="Layer_1" data-name="Layer 1" xmlns="http://www.w3.org/2000/svg" viewBox="0 0 57.97 40.54"><defs><style>.cls-1{fill:#1db954;}.cls-2{fill:#d5dee8;fill-rule:evenodd;}</style></defs><path class="cls-1" d="M51.47,17.58a11.12,11.12,0,0,0,2.67-1,6.38,6.38,0,0,0-3.32-1.87l.79-.38s-.17-.45-1.34-.81c-.05-.25.8-1.38.83-2l-.31.09s.1-.93.11-1.34l-.23,0a5.61,5.61,0,0,0,.27-2.57l-.12-.83-.18.25.18-.25-.77.08a4.36,4.36,0,0,0-2.23.9l-.1-.24c-.36.11-1.17.44-1.17.44V7.67C46,7.84,45.19,9,45,9c-.63-1.15-1.05-1.22-1.05-1.22l-.14.93a7,7,0,0,0-2.44-3.08,14.25,14.25,0,0,0-.23,3.06l-.44-.3a5.45,5.45,0,0,0,0,2.13,7.92,7.92,0,0,0-1-.32,2.9,2.9,0,0,0,.32,1.64,4.5,4.5,0,0,0-1-.1,2.29,2.29,0,0,0-1.79.75l.21.6c.63,1.92,1.85,2.07,1.85,2.07l-.79,0a1.9,1.9,0,0,0,1.79,1.16l-.64.22a2.57,2.57,0,0,0,1.95,1l-.35.26c.26.28,1,.25,1.38.25a15.25,15.25,0,0,1-2.34,1.29,5.43,5.43,0,0,1-2.53.69.22.22,0,0,0-.17.26.06.06,0,0,0,0,0,.27.27,0,0,0,.33.27A7.12,7.12,0,0,0,41.1,19.5c.63-.39,1.26-.69,1.68-1a2.18,2.18,0,0,0,.5,1.15l.11-.41a2.76,2.76,0,0,0,1.4,1.81l0-.69A2,2,0,0,0,46.27,22l-.15-.86a2.57,2.57,0,0,0,2.3,1.46l.59.08a2.8,2.8,0,0,0,.23-2.07,5.61,5.61,0,0,0-.3-1,2.4,2.4,0,0,0,1.52,0,9.29,9.29,0,0,0-.54-1,4.39,4.39,0,0,0,1.9-.49Z" transform="translate(-2.25 -5.65)"/><path class="cls-1" d="M59.5,42.39a12.85,12.85,0,0,0-2.29-6.29c-5.13-5.74-10.06-1.05-10.65-.59a10.83,10.83,0,0,0-5.75-1.21.12.12,0,0,0-.12.16c0,.16.15.17.28.16a10.78,10.78,0,0,1,5.46,1.21,7.15,7.15,0,0,0-.72,3c-.1,4.92,4.77,5.82,5.3,5.94,1.64.28,8.58,1.24,9.21,1.43A14,14,0,0,1,59.5,42.39Z" transform="translate(-2.25 -5.65)"/><path class="cls-2" d="M35,18.58a1,1,0,0,1-.95,1H14.09a1.06,1.06,0,0,1-.95-.64,1.3,1.3,0,0,1-.09-.4,1,1,0,0,1,1-1H34A1.06,1.06,0,0,1,35,18.58Zm-6,5.65a1.06,1.06,0,0,1,1,1,1,1,0,0,1-.95,1H9.08a1.06,1.06,0,0,1-.95-.64,1.11,1.11,0,0,1-.09-.4,1,1,0,0,1,1-1Zm5.61,12.33a1.07,1.07,0,0,1,1,1,1,1,0,0,1-1,1H14.69a1,1,0,0,1-.95-.64,1,1,0,0,1-.09-.39,1,1,0,0,1,1-1ZM23.15,11a1.06,1.06,0,0,1,1,1,1,1,0,0,1-.95,1H3.29a1,1,0,0,1-1-.64A1.24,1.24,0,0,1,2.25,12a1,1,0,0,1,1-1ZM40.59,30.92a1,1,0,0,1-1,1H19.7a1.07,1.07,0,0,1-.95-.64,1.37,1.37,0,0,1-.09-.4,1,1,0,0,1,1-1H39.56A1.06,1.06,0,0,1,40.59,30.92Z" transform="translate(-2.25 -5.65)"/></svg>